<svg width="24" height="24" viewBox="0 0 24 24" fill="none" xmlns="http://www.w3.org/2000/svg">
<rect width="24" height="24" rx="12" fill="#938F8D" fill-opacity="0.2"/>
<g clip-path="url(#clip0_391_2449)">
<path fill-rule="evenodd" clip-rule="evenodd" d="M9.0241 6.00932C10.0046 6.08037 11.0263 6.55835 12.0044 7.52572C12.9822 6.55862 14.003 6.08155 14.9826 6.01208C16.0882 5.93367 17.0656 6.38052 17.7728 7.08553C19.1631 8.47167 19.5997 10.9799 17.8745 12.7051C17.8687 12.7109 17.8627 12.7166 17.8566 12.7221L12.34 17.7191C12.1495 17.8916 11.8592 17.8916 11.6687 17.7191L6.15213 12.7221C6.14603 12.7166 6.14007 12.7109 6.13425 12.7051C4.40002 10.9709 4.8343 8.46239 6.22919 7.07733C6.93808 6.37343 7.91747 5.92914 9.0241 6.00932Z" fill="#F06500"/>
</g>
<defs>
<clipPath id="clip0_391_2449">
<rect width="14" height="13.8485" fill="white" transform="translate(5 5)"/>
</clipPath>
</defs>
</svg>
