<svg width="136" height="48" viewBox="0 0 136 48" fill="none" xmlns="http://www.w3.org/2000/svg">
<g clip-path="url(#clip0_826_1454)">
<path d="M7.35386 21.8811C6.92543 21.8811 6.57812 21.5338 6.57812 21.1054V18.1058C6.57812 17.6774 6.92543 17.3301 7.35386 17.3301H26.5407V21.8811H19.2314V41.4644H14.6976C14.2692 41.4644 13.9219 41.1171 13.9219 40.6887V21.8811H7.35386Z" fill="#F06500"/>
<path d="M25.7046 17.3301C27.7273 17.3301 29.4856 17.6863 30.9797 18.3989C32.4737 19.1114 33.623 20.1228 34.4274 21.4329C35.2549 22.7431 35.6686 24.2946 35.6686 26.0874C35.6686 27.8572 35.2549 29.4087 34.4274 30.7419C33.623 32.052 32.4737 33.0634 30.9797 33.7759C29.4856 34.4655 27.7273 34.8102 25.7046 34.8102H21.0846V40.6887C21.0846 41.1171 20.7373 41.4644 20.3089 41.4644H15.775V17.3301H25.7046ZM25.3943 30.2592C27.0033 30.2592 28.2215 29.9029 29.0489 29.1904C29.8764 28.4549 30.2901 27.4205 30.2901 26.0874C30.2901 24.7543 29.8764 23.7199 29.0489 22.9844C28.2215 22.2489 27.0033 21.8811 25.3943 21.8811H21.0846V30.2592H25.3943Z" fill="#F06500"/>
<path d="M50.3127 35.4942C50.0093 35.7286 49.637 35.9079 49.1957 36.032C48.7682 36.1423 48.3062 36.1975 47.8097 36.1975C46.5547 36.1975 45.5825 35.8596 44.893 35.1839C44.2034 34.5081 43.8586 33.5152 43.8586 32.205V27.6334H42.2451V25.1511H43.8586V22.4412H46.9409V25.1511H49.568V27.6334H46.9409V32.1637C46.9409 32.6326 47.0512 32.998 47.2719 33.26C47.5063 33.5083 47.8304 33.6324 48.2441 33.6324C48.7268 33.6324 49.1405 33.4945 49.4853 33.2187L50.3127 35.4942Z" fill="#F06500"/>
<path d="M54.5507 26.3715C54.9231 25.8337 55.4196 25.4269 56.0401 25.1511C56.6607 24.8752 57.3779 24.7373 58.1915 24.7373V27.7161C57.8329 27.6886 57.5985 27.6748 57.4882 27.6748C56.6194 27.6748 55.9367 27.9368 55.4402 28.4608C54.9438 28.9711 54.6955 29.7434 54.6955 30.7777V36.032H51.6133V24.9028H54.5507V26.3715Z" fill="#F06500"/>
<path d="M61.219 23.3514C60.6536 23.3514 60.1916 23.179 59.8331 22.8342C59.4745 22.4894 59.2952 22.0619 59.2952 21.5517C59.2952 21.0414 59.4745 20.6139 59.8331 20.2691C60.1916 19.9243 60.6536 19.752 61.219 19.752C61.7845 19.752 62.2396 19.9174 62.5843 20.2484C62.9429 20.5794 63.1222 20.9931 63.1222 21.4896C63.1222 22.0274 62.9429 22.4756 62.5843 22.8342C62.2396 23.179 61.7845 23.3514 61.219 23.3514ZM62.7498 24.9028V36.032H59.6676V24.9028H62.7498Z" fill="#F06500"/>
<path d="M71.4444 24.7373C72.4236 24.7373 73.3131 24.9787 74.1129 25.4613C74.9128 25.9302 75.5403 26.5991 75.9954 27.4679C76.4643 28.3229 76.6987 29.3228 76.6987 30.4674C76.6987 31.612 76.4643 32.6188 75.9954 33.4876C75.5403 34.3426 74.9128 35.0115 74.1129 35.4942C73.3131 35.963 72.4236 36.1975 71.4444 36.1975C70.0929 36.1975 69.031 35.7493 68.2587 34.8529V40.0451H65.1765V24.9028H68.1139V26.1854C68.8724 25.22 69.9826 24.7373 71.4444 24.7373ZM70.9066 33.5496C71.6926 33.5496 72.3339 33.2738 72.8304 32.7222C73.3406 32.1568 73.5958 31.4052 73.5958 30.4674C73.5958 29.5296 73.3406 28.7849 72.8304 28.2333C72.3339 27.6679 71.6926 27.3852 70.9066 27.3852C70.1205 27.3852 69.4723 27.6679 68.9621 28.2333C68.4656 28.7849 68.2174 29.5296 68.2174 30.4674C68.2174 31.4052 68.4656 32.1568 68.9621 32.7222C69.4723 33.2738 70.1205 33.5496 70.9066 33.5496Z" fill="#F06500"/>
<path d="M84.6076 24.7373C85.5868 24.7373 86.4763 24.9787 87.2761 25.4613C88.076 25.9302 88.7035 26.5991 89.1586 27.4679C89.6275 28.3229 89.8619 29.3228 89.8619 30.4674C89.8619 31.612 89.6275 32.6188 89.1586 33.4876C88.7035 34.3426 88.076 35.0115 87.2761 35.4942C86.4763 35.963 85.5868 36.1975 84.6076 36.1975C83.2561 36.1975 82.1942 35.7493 81.422 34.8529V40.0451H78.3397V24.9028H81.2771V26.1854C82.0356 25.22 83.1458 24.7373 84.6076 24.7373ZM84.0698 33.5496C84.8559 33.5496 85.4971 33.2738 85.9936 32.7222C86.5039 32.1568 86.759 31.4052 86.759 30.4674C86.759 29.5296 86.5039 28.7849 85.9936 28.2333C85.4971 27.6679 84.8559 27.3852 84.0698 27.3852C83.2837 27.3852 82.6355 27.6679 82.1253 28.2333C81.6288 28.7849 81.3806 29.5296 81.3806 30.4674C81.3806 31.4052 81.6288 32.1568 82.1253 32.7222C82.6355 33.2738 83.2837 33.5496 84.0698 33.5496Z" fill="#F06500"/>
<path d="M96.5504 36.1975C95.4333 36.1975 94.4335 35.9561 93.5508 35.4735C92.6682 34.977 91.9718 34.2944 91.4615 33.4255C90.9651 32.5567 90.7168 31.5707 90.7168 30.4674C90.7168 29.3641 90.9651 28.3781 91.4615 27.5093C91.9718 26.6405 92.6682 25.9647 93.5508 25.482C94.4335 24.9856 95.4333 24.7373 96.5504 24.7373C97.6536 24.7373 98.6466 24.9856 99.5292 25.482C100.412 25.9647 101.101 26.6405 101.598 27.5093C102.094 28.3781 102.342 29.3641 102.342 30.4674C102.342 31.5707 102.094 32.5567 101.598 33.4255C101.101 34.2944 100.412 34.977 99.5292 35.4735C98.6466 35.9561 97.6536 36.1975 96.5504 36.1975ZM96.5504 33.5496C97.3364 33.5496 97.9777 33.2738 98.4742 32.7222C98.9844 32.1568 99.2396 31.4052 99.2396 30.4674C99.2396 29.5296 98.9844 28.7849 98.4742 28.2333C97.9777 27.6679 97.3364 27.3852 96.5504 27.3852C95.7643 27.3852 95.1161 27.6679 94.6058 28.2333C94.0956 28.7849 93.8405 29.5296 93.8405 30.4674C93.8405 31.4052 94.0956 32.1568 94.6058 32.7222C95.1161 33.2738 95.7643 33.5496 96.5504 33.5496Z" fill="#F06500"/>
<path d="M105.509 23.3514C104.943 23.3514 104.481 23.179 104.123 22.8342C103.764 22.4894 103.585 22.0619 103.585 21.5517C103.585 21.0414 103.764 20.6139 104.123 20.2691C104.481 19.9243 104.943 19.752 105.509 19.752C106.074 19.752 106.529 19.9174 106.874 20.2484C107.232 20.5794 107.412 20.9931 107.412 21.4896C107.412 22.0274 107.232 22.4756 106.874 22.8342C106.529 23.179 106.074 23.3514 105.509 23.3514ZM107.039 24.9028V36.032H103.957V24.9028H107.039Z" fill="#F06500"/>
<path d="M115.899 24.7373C117.223 24.7373 118.285 25.1511 119.085 25.9785C119.885 26.8059 120.285 28.0333 120.285 29.6606V36.032H117.223V30.1571C117.223 29.2745 117.037 28.6194 116.665 28.1919C116.292 27.7506 115.761 27.53 115.072 27.53C114.3 27.53 113.686 27.7851 113.231 28.2954C112.776 28.7918 112.548 29.5365 112.548 30.5295V36.032H109.466V24.9028H112.403V26.206C112.817 25.7372 113.321 25.3786 113.914 25.1304C114.52 24.8683 115.182 24.7373 115.899 24.7373Z" fill="#F06500"/>
<path d="M129.456 35.4942C129.152 35.7286 128.78 35.9079 128.339 36.032C127.911 36.1423 127.449 36.1975 126.953 36.1975C125.698 36.1975 124.725 35.8596 124.036 35.1839C123.346 34.5081 123.002 33.5152 123.002 32.205V27.6334H121.388V25.1511H123.002V22.4412H126.084V25.1511H128.711V27.6334H126.084V32.1637C126.084 32.6326 126.194 32.998 126.415 33.26C126.649 33.5083 126.973 33.6324 127.387 33.6324C127.87 33.6324 128.283 33.4945 128.628 33.2187L129.456 35.4942Z" fill="#F06500"/>
<circle cx="19.368" cy="10.4349" r="3.87873" fill="#F06500"/>
</g>
<defs>
<clipPath id="clip0_826_1454">
<rect width="136" height="48" fill="white"/>
</clipPath>
</defs>
</svg>
