<svg width="74" height="14" viewBox="0 0 74 14" fill="none" xmlns="http://www.w3.org/2000/svg">
<path d="M6.60713 0.299212C6.73079 -0.099738 7.26921 -0.0997367 7.39287 0.299213L8.76216 4.71676C8.81746 4.89518 8.97607 5.01597 9.15503 5.01597H13.5861C13.9863 5.01597 14.1527 5.55276 13.8289 5.79932L10.2441 8.52952C10.0993 8.63978 10.0387 8.83524 10.094 9.01365L11.4633 13.4312C11.587 13.8301 11.1514 14.1619 10.8276 13.9153L7.24281 11.1851C7.09803 11.0749 6.90197 11.0749 6.75719 11.1851L3.17237 13.9153C2.84862 14.1619 2.41302 13.8301 2.53668 13.4312L3.90596 9.01365C3.96127 8.83524 3.90068 8.63978 3.7559 8.52952L0.171074 5.79932C-0.152672 5.55276 0.0137128 5.01597 0.413885 5.01597H4.84497C5.02393 5.01597 5.18254 4.89518 5.23784 4.71676L6.60713 0.299212Z" fill="#F06500"/>
<path d="M21.6071 0.299212C21.7308 -0.099738 22.2692 -0.0997367 22.3929 0.299213L23.7622 4.71676C23.8175 4.89518 23.9761 5.01597 24.155 5.01597H28.5861C28.9863 5.01597 29.1527 5.55276 28.8289 5.79932L25.2441 8.52952C25.0993 8.63978 25.0387 8.83524 25.094 9.01365L26.4633 13.4312C26.587 13.8301 26.1514 14.1619 25.8276 13.9153L22.2428 11.1851C22.098 11.0749 21.902 11.0749 21.7572 11.1851L18.1724 13.9153C17.8486 14.1619 17.413 13.8301 17.5367 13.4312L18.906 9.01365C18.9613 8.83524 18.9007 8.63978 18.7559 8.52952L15.1711 5.79932C14.8473 5.55276 15.0137 5.01597 15.4139 5.01597H19.845C20.0239 5.01597 20.1825 4.89518 20.2378 4.71676L21.6071 0.299212Z" fill="#F06500"/>
<path d="M36.6071 0.299212C36.7308 -0.099738 37.2692 -0.0997367 37.3929 0.299213L38.7622 4.71676C38.8175 4.89518 38.9761 5.01597 39.155 5.01597H43.5861C43.9863 5.01597 44.1527 5.55276 43.8289 5.79932L40.2441 8.52952C40.0993 8.63978 40.0387 8.83524 40.094 9.01365L41.4633 13.4312C41.587 13.8301 41.1514 14.1619 40.8276 13.9153L37.2428 11.1851C37.098 11.0749 36.902 11.0749 36.7572 11.1851L33.1724 13.9153C32.8486 14.1619 32.413 13.8301 32.5367 13.4312L33.906 9.01365C33.9613 8.83524 33.9007 8.63978 33.7559 8.52952L30.1711 5.79932C29.8473 5.55276 30.0137 5.01597 30.4139 5.01597H34.845C35.0239 5.01597 35.1825 4.89518 35.2378 4.71676L36.6071 0.299212Z" fill="#F06500"/>
<path d="M51.6071 0.299212C51.7308 -0.099738 52.2692 -0.0997367 52.3929 0.299213L53.7622 4.71676C53.8175 4.89518 53.9761 5.01597 54.155 5.01597H58.5861C58.9863 5.01597 59.1527 5.55276 58.8289 5.79932L55.2441 8.52952C55.0993 8.63978 55.0387 8.83524 55.094 9.01365L56.4633 13.4312C56.587 13.8301 56.1514 14.1619 55.8276 13.9153L52.2428 11.1851C52.098 11.0749 51.902 11.0749 51.7572 11.1851L48.1724 13.9153C47.8486 14.1619 47.413 13.8301 47.5367 13.4312L48.906 9.01365C48.9613 8.83524 48.9007 8.63978 48.7559 8.52952L45.1711 5.79932C44.8473 5.55276 45.0137 5.01597 45.4139 5.01597H49.845C50.0239 5.01597 50.1825 4.89518 50.2378 4.71676L51.6071 0.299212Z" fill="#F06500"/>
<path d="M66.6071 0.299212C66.7308 -0.0997381 67.2692 -0.0997368 67.3929 0.299213L68.7622 4.71676C68.8175 4.89518 68.9761 5.01597 69.155 5.01597H73.5861C73.9863 5.01597 74.1527 5.55276 73.8289 5.79932L70.2441 8.52952C70.0993 8.63978 70.0387 8.83524 70.094 9.01365L71.4633 13.4312C71.587 13.8301 71.1514 14.1619 70.8276 13.9153L67.2428 11.1851C67.098 11.0749 66.902 11.0749 66.7572 11.1851L63.1724 13.9153C62.8486 14.1619 62.413 13.8302 62.5367 13.4312L63.906 9.01365C63.9613 8.83524 63.9007 8.63978 63.7559 8.52952L60.1711 5.79932C59.8473 5.55276 60.0137 5.01597 60.4139 5.01597H64.845C65.0239 5.01597 65.1825 4.89518 65.2378 4.71676L66.6071 0.299212Z" fill="url(#paint0_linear_289_4095)"/>
<defs>
<linearGradient id="paint0_linear_289_4095" x1="67" y1="7" x2="67" y2="7" gradientUnits="userSpaceOnUse">
<stop stop-color="#F06500"/>
<stop offset="1" stop-color="white" stop-opacity="0"/>
</linearGradient>
</defs>
</svg>
